<svg width="48" height="48" viewBox="0 0 48 48" fill="none" xmlns="http://www.w3.org/2000/svg">
<path d="M45.9498 1.08472C44.7296 -0.13545 42.8532 -0.330267 40.3821 0.520776C39.2952 0.889903 38.0648 1.4641 36.6806 2.24337C35.85 2.71503 34.958 3.24821 34.0352 3.86343C33.7891 4.02748 33.543 4.19154 33.2867 4.36585C34.7017 5.0836 36.0244 5.95515 37.2445 6.9805C37.5316 6.80619 37.7982 6.63188 38.0648 6.47808C40.4026 5.0836 41.8689 4.55041 42.6379 4.39661C42.4328 5.43222 41.5408 7.75977 38.7518 11.7792C38.5262 12.097 38.3006 12.4251 38.0648 12.7532C37.5419 12.0457 36.9574 11.3588 36.3115 10.723C29.2468 3.65836 17.7833 3.65836 10.7186 10.723C3.65396 17.7877 3.65396 29.2512 10.7186 36.3158C11.3646 36.9618 12.0413 37.5463 12.7488 38.0692C12.4207 38.305 12.0926 38.5306 11.7748 38.7562C7.75537 41.5349 5.42782 42.4372 4.39222 42.6423C4.51526 42.0168 4.89464 40.8992 5.8072 39.2176C6.12506 38.6331 6.50444 37.9769 6.96585 37.2489C5.95075 36.0287 5.0792 34.706 4.3512 33.2911C4.17689 33.5371 4.01283 33.7935 3.84878 34.0396C2.99774 35.3315 2.29024 36.5312 1.7263 37.6283C1.20337 38.6331 0.80348 39.556 0.516381 40.3865C-0.324408 42.8576 -0.139845 44.734 1.08033 45.9542C2.3005 47.1743 4.17689 47.3692 6.64799 46.5181C8.39109 45.9234 10.5238 44.7955 12.9949 43.1755C17.8756 39.9661 23.6996 35.0752 29.3801 29.3947C35.0605 23.7143 39.9617 17.8903 43.1608 13.0096C44.7809 10.5385 45.9088 8.40574 46.5035 6.66264C47.3545 4.18129 47.1699 2.31514 45.9498 1.08472ZM10.6469 25.242C9.69329 25.242 8.92428 24.473 8.92428 23.5194C8.92428 19.6026 10.4521 15.9113 13.2205 13.1429C13.8972 12.4661 14.9841 12.4661 15.6608 13.1429C16.3376 13.8196 16.3376 14.9065 15.6608 15.5832C13.5384 17.7057 12.3695 20.5254 12.3695 23.5194C12.3797 24.473 11.6004 25.242 10.6469 25.242Z" fill="white"/>
<path d="M32.1634 32.2866C28.5747 35.8753 24.9244 39.1565 21.469 41.9352C26.8624 42.6529 32.5326 40.9406 36.675 36.7981C40.8277 32.6455 42.54 26.9855 41.812 21.5922C39.0333 25.0476 35.7522 28.6979 32.1634 32.2866Z" fill="white"/>
</svg>
