<svg width="147" height="48" viewBox="0 0 147 48" fill="none" xmlns="http://www.w3.org/2000/svg">
<g clip-path="url(#clip0_344_445)">
<path d="M46.3135 1.56701C45.0933 0.346842 43.2169 0.152025 40.7458 1.00307C39.659 1.3722 38.4285 1.94639 37.0443 2.72566C36.2138 3.19732 35.3217 3.73051 34.3989 4.34572C34.1528 4.50978 33.9067 4.67383 33.6504 4.84814C35.0654 5.56589 36.3881 6.43744 37.6083 7.46279C37.8954 7.28848 38.162 7.11417 38.4285 6.96037C40.7664 5.56589 42.2326 5.03271 43.0016 4.8789C42.7966 5.91451 41.9045 8.24206 39.1155 12.2614C38.89 12.5793 38.6644 12.9074 38.4285 13.2355C37.9056 12.528 37.3212 11.841 36.6752 11.2053C29.6105 4.14065 18.1471 4.14065 11.0824 11.2053C4.0177 18.27 4.0177 29.7335 11.0824 36.7981C11.7284 37.4441 12.4051 38.0286 13.1126 38.5515C12.7845 38.7873 12.4564 39.0129 12.1385 39.2385C8.11911 42.0172 5.79156 42.9195 4.75595 43.1246C4.879 42.4991 5.25838 41.3815 6.17094 39.6999C6.4888 39.1154 6.86818 38.4592 7.32959 37.7312C6.31449 36.511 5.44294 35.1883 4.71494 33.7733C4.54063 34.0194 4.37657 34.2758 4.21252 34.5219C3.36147 35.8138 2.65398 37.0135 2.09004 38.1106C1.56711 39.1154 1.16722 40.0383 0.88012 40.8688C0.0393306 43.3399 0.223894 45.2163 1.44406 46.4365C2.66423 47.6566 4.54063 47.8514 7.01173 47.0004C8.75483 46.4057 10.8876 45.2778 13.3587 43.6578C18.2393 40.4484 24.0634 35.5575 29.7438 29.877C35.4243 24.1966 40.3255 18.3725 43.5246 13.4919C45.1446 11.0208 46.2725 8.88803 46.8672 7.14493C47.7182 4.66358 47.5337 2.79744 46.3135 1.56701ZM11.0106 25.7243C10.057 25.7243 9.28801 24.9553 9.28801 24.0017C9.28801 20.0849 10.8158 16.3936 13.5842 13.6252C14.261 12.9484 15.3479 12.9484 16.0246 13.6252C16.7013 14.3019 16.7013 15.3888 16.0246 16.0655C13.9021 18.188 12.7332 21.0077 12.7332 24.0017C12.7435 24.9553 11.9642 25.7243 11.0106 25.7243Z" fill="white"/>
<path d="M32.1634 32.2866C28.5747 35.8753 24.9244 39.1565 21.469 41.9352C26.8623 42.6529 32.5325 40.9406 36.675 36.7981C40.8276 32.6455 42.54 26.9855 41.812 21.5922C39.0333 25.0476 35.7522 28.6979 32.1634 32.2866Z" fill="white"/>
</g>
<path d="M67.0256 19.3899C66.9448 19.501 66.864 19.5868 66.7832 19.6474C66.7025 19.708 66.5914 19.7383 66.45 19.7383C66.2986 19.7383 66.132 19.6777 65.9502 19.5565C65.7685 19.4253 65.5413 19.2839 65.2687 19.1325C65.0062 18.981 64.6781 18.8447 64.2843 18.7236C63.9006 18.5923 63.4261 18.5267 62.8606 18.5267C62.1034 18.5267 61.437 18.663 60.8615 18.9356C60.286 19.1981 59.8013 19.5818 59.4076 20.0866C59.0239 20.5915 58.7311 21.2023 58.5292 21.9192C58.3373 22.636 58.2414 23.4387 58.2414 24.3272C58.2414 25.2561 58.3474 26.0841 58.5594 26.811C58.7715 27.5279 59.0693 28.1337 59.453 28.6285C59.8468 29.1131 60.3163 29.4867 60.8615 29.7492C61.4168 30.0016 62.0378 30.1278 62.7243 30.1278C63.3806 30.1278 63.9208 30.0521 64.3449 29.9006C64.7689 29.7391 65.1173 29.5624 65.3899 29.3706C65.6726 29.1787 65.9048 29.0071 66.0866 28.8556C66.2784 28.6941 66.4652 28.6133 66.6469 28.6133C66.8691 28.6133 67.0407 28.6991 67.1619 28.8708L67.9191 29.8552C67.5859 30.2692 67.2073 30.6226 66.7832 30.9154C66.3592 31.2082 65.8998 31.4555 65.405 31.6575C64.9204 31.8493 64.4105 31.9907 63.8754 32.0815C63.3402 32.1724 62.795 32.2178 62.2397 32.2178C61.2805 32.2178 60.387 32.0412 59.559 31.6878C58.7412 31.3344 58.0294 30.8245 57.4236 30.1581C56.8178 29.4816 56.3432 28.6537 55.9999 27.6743C55.6566 26.6949 55.485 25.5792 55.485 24.3272C55.485 23.1863 55.6415 22.1312 55.9545 21.1619C56.2776 20.1926 56.742 19.3597 57.3478 18.663C57.9637 17.9562 58.7159 17.4059 59.6045 17.0122C60.5031 16.6184 61.5329 16.4215 62.6941 16.4215C63.7744 16.4215 64.7235 16.5982 65.5413 16.9516C66.3693 17.2949 67.1013 17.7846 67.7374 18.4207L67.0256 19.3899ZM77.0137 16.4215C78.1345 16.4215 79.1442 16.6083 80.0428 16.9819C80.9414 17.3555 81.7087 17.8855 82.3448 18.5721C82.9809 19.2587 83.4656 20.0917 83.7987 21.0711C84.142 22.0403 84.3137 23.1257 84.3137 24.3272C84.3137 25.5389 84.142 26.6293 83.7987 27.5986C83.4656 28.5679 82.9809 29.3958 82.3448 30.0824C81.7087 30.769 80.9414 31.299 80.0428 31.6726C79.1442 32.0361 78.1345 32.2178 77.0137 32.2178C75.8829 32.2178 74.8631 32.0361 73.9544 31.6726C73.0558 31.299 72.2885 30.769 71.6524 30.0824C71.0163 29.3958 70.5266 28.5679 70.1833 27.5986C69.8501 26.6293 69.6835 25.5389 69.6835 24.3272C69.6835 23.1257 69.8501 22.0403 70.1833 21.0711C70.5266 20.0917 71.0163 19.2587 71.6524 18.5721C72.2885 17.8855 73.0558 17.3555 73.9544 16.9819C74.8631 16.6083 75.8829 16.4215 77.0137 16.4215ZM77.0137 30.1127C78.5283 30.1127 79.6591 29.6078 80.4062 28.5982C81.1534 27.5784 81.527 26.1598 81.527 24.3424C81.527 22.5149 81.1534 21.0912 80.4062 20.0715C79.6591 19.0517 78.5283 18.5418 77.0137 18.5418C76.2464 18.5418 75.575 18.6731 74.9994 18.9356C74.434 19.1981 73.9595 19.5767 73.5758 20.0715C73.2022 20.5662 72.9195 21.1771 72.7277 21.904C72.5459 22.6209 72.4551 23.4337 72.4551 24.3424C72.4551 26.1598 72.8286 27.5784 73.5758 28.5982C74.3331 29.6078 75.479 30.1127 77.0137 30.1127ZM96.6685 19.1931C96.5474 19.4152 96.3606 19.5263 96.1082 19.5263C95.9567 19.5263 95.7851 19.4707 95.5932 19.3597C95.4014 19.2486 95.1641 19.1274 94.8814 18.9962C94.6088 18.8548 94.2807 18.7286 93.897 18.6175C93.5133 18.4964 93.0589 18.4358 92.5339 18.4358C92.0796 18.4358 91.6706 18.4964 91.3072 18.6175C90.9437 18.7286 90.6307 18.8851 90.3682 19.087C90.1157 19.289 89.9189 19.5263 89.7775 19.7989C89.6463 20.0614 89.5806 20.3491 89.5806 20.6621C89.5806 21.0559 89.6917 21.3841 89.9138 21.6466C90.146 21.9091 90.4489 22.1363 90.8225 22.3281C91.1961 22.5199 91.6202 22.6916 92.0947 22.843C92.5693 22.9844 93.0539 23.1409 93.5486 23.3125C94.0535 23.4741 94.5432 23.6558 95.0177 23.8578C95.4923 24.0597 95.9163 24.3121 96.2899 24.615C96.6635 24.9179 96.9613 25.2915 97.1835 25.7357C97.4157 26.1699 97.5318 26.6949 97.5318 27.3108C97.5318 28.0176 97.4056 28.6739 97.1532 29.2797C96.9008 29.8754 96.5272 30.3954 96.0324 30.8396C95.5377 31.2738 94.9319 31.6171 94.215 31.8695C93.4982 32.1219 92.6702 32.2481 91.7312 32.2481C90.661 32.2481 89.6917 32.0765 88.8234 31.7332C87.955 31.3798 87.218 30.9305 86.6122 30.3853L87.2483 29.3554C87.3291 29.2242 87.425 29.1232 87.536 29.0525C87.6471 28.9818 87.7885 28.9465 87.9601 28.9465C88.1418 28.9465 88.3337 29.0172 88.5356 29.1585C88.7375 29.2999 88.9799 29.4564 89.2626 29.628C89.5554 29.7997 89.9088 29.9562 90.3227 30.0975C90.7367 30.2389 91.2516 30.3096 91.8675 30.3096C92.3926 30.3096 92.852 30.2439 93.2457 30.1127C93.6395 29.9713 93.9677 29.7845 94.2302 29.5523C94.4927 29.3201 94.6845 29.0525 94.8057 28.7496C94.9369 28.4467 95.0026 28.1236 95.0026 27.7803C95.0026 27.3563 94.8865 27.0079 94.6542 26.7353C94.4321 26.4526 94.1342 26.2153 93.7607 26.0235C93.3871 25.8216 92.958 25.6499 92.4733 25.5086C91.9988 25.3571 91.5091 25.2006 91.0043 25.0391C90.5095 24.8775 90.0198 24.6958 89.5352 24.4938C89.0606 24.2818 88.6366 24.0193 88.263 23.7063C87.8894 23.3933 87.5865 23.0096 87.3543 22.5553C87.1322 22.0908 87.0211 21.5305 87.0211 20.8742C87.0211 20.2886 87.1423 19.7282 87.3846 19.1931C87.6269 18.6478 87.9803 18.1733 88.4447 17.7694C88.9092 17.3555 89.4797 17.0273 90.1561 16.785C90.8326 16.5427 91.605 16.4215 92.4733 16.4215C93.483 16.4215 94.3867 16.5831 95.1843 16.9062C95.992 17.2192 96.6887 17.6533 97.2743 18.2086L96.6685 19.1931ZM100.837 32.0058V16.6638H102.458C102.841 16.6638 103.078 16.8506 103.169 17.2242L103.366 18.7993C103.932 18.1026 104.568 17.5321 105.274 17.0879C105.981 16.6436 106.799 16.4215 107.728 16.4215C108.758 16.4215 109.591 16.7093 110.227 17.2848C110.873 17.8603 111.338 18.6377 111.62 19.6171C111.842 19.0618 112.125 18.5822 112.468 18.1783C112.822 17.7745 113.216 17.4413 113.65 17.1788C114.084 16.9162 114.543 16.7244 115.028 16.6032C115.523 16.4821 116.022 16.4215 116.527 16.4215C117.335 16.4215 118.052 16.5528 118.678 16.8153C119.314 17.0677 119.849 17.4413 120.283 17.936C120.728 18.4308 121.066 19.0416 121.298 19.7686C121.53 20.4854 121.646 21.3083 121.646 22.2372V32.0058H118.935V22.2372C118.935 21.0357 118.673 20.127 118.148 19.5111C117.623 18.8851 116.866 18.5721 115.876 18.5721C115.432 18.5721 115.008 18.6529 114.604 18.8144C114.21 18.9659 113.862 19.1931 113.559 19.496C113.256 19.7989 113.014 20.1825 112.832 20.647C112.66 21.1013 112.574 21.6314 112.574 22.2372V32.0058H109.863V22.2372C109.863 21.0054 109.616 20.0866 109.121 19.4808C108.627 18.875 107.905 18.5721 106.956 18.5721C106.289 18.5721 105.673 18.7539 105.108 19.1173C104.542 19.4707 104.022 19.9554 103.548 20.5713V32.0058H100.837ZM128.591 16.6638V32.0058H125.895V16.6638H128.591ZM129.166 11.8477C129.166 12.1102 129.111 12.3576 129 12.5898C128.899 12.8119 128.757 13.0139 128.576 13.1956C128.404 13.3672 128.197 13.5036 127.955 13.6045C127.723 13.7055 127.475 13.756 127.213 13.756C126.95 13.756 126.703 13.7055 126.471 13.6045C126.248 13.5036 126.052 13.3672 125.88 13.1956C125.708 13.0139 125.572 12.8119 125.471 12.5898C125.37 12.3576 125.319 12.1102 125.319 11.8477C125.319 11.5852 125.37 11.3378 125.471 11.1056C125.572 10.8633 125.708 10.6563 125.88 10.4846C126.052 10.3029 126.248 10.1615 126.471 10.0606C126.703 9.9596 126.95 9.90912 127.213 9.90912C127.475 9.90912 127.723 9.9596 127.955 10.0606C128.197 10.1615 128.404 10.3029 128.576 10.4846C128.757 10.6563 128.899 10.8633 129 11.1056C129.111 11.3378 129.166 11.5852 129.166 11.8477ZM143.698 19.3899C143.617 19.501 143.536 19.5868 143.455 19.6474C143.375 19.708 143.263 19.7383 143.122 19.7383C142.971 19.7383 142.804 19.6777 142.622 19.5565C142.441 19.4253 142.213 19.2839 141.941 19.1325C141.678 18.981 141.35 18.8447 140.956 18.7236C140.573 18.5923 140.098 18.5267 139.533 18.5267C138.775 18.5267 138.109 18.663 137.534 18.9356C136.958 19.1981 136.473 19.5818 136.08 20.0866C135.696 20.5915 135.403 21.2023 135.201 21.9192C135.009 22.636 134.913 23.4387 134.913 24.3272C134.913 25.2561 135.019 26.0841 135.231 26.811C135.444 27.5279 135.741 28.1337 136.125 28.6285C136.519 29.1131 136.988 29.4867 137.534 29.7492C138.089 30.0016 138.71 30.1278 139.396 30.1278C140.053 30.1278 140.593 30.0521 141.017 29.9006C141.441 29.7391 141.789 29.5624 142.062 29.3706C142.345 29.1787 142.577 29.0071 142.759 28.8556C142.95 28.6941 143.137 28.6133 143.319 28.6133C143.541 28.6133 143.713 28.6991 143.834 28.8708L144.591 29.8552C144.258 30.2692 143.879 30.6226 143.455 30.9154C143.031 31.2082 142.572 31.4555 142.077 31.6575C141.592 31.8493 141.083 31.9907 140.547 32.0815C140.012 32.1724 139.467 32.2178 138.912 32.2178C137.953 32.2178 137.059 32.0412 136.231 31.6878C135.413 31.3344 134.701 30.8245 134.096 30.1581C133.49 29.4816 133.015 28.6537 132.672 27.6743C132.329 26.6949 132.157 25.5792 132.157 24.3272C132.157 23.1863 132.314 22.1312 132.627 21.1619C132.95 20.1926 133.414 19.3597 134.02 18.663C134.636 17.9562 135.388 17.4059 136.277 17.0122C137.175 16.6184 138.205 16.4215 139.366 16.4215C140.446 16.4215 141.396 16.5982 142.213 16.9516C143.041 17.2949 143.773 17.7846 144.409 18.4207L143.698 19.3899Z" fill="white"/>
<defs>
<clipPath id="clip0_344_445">
<rect width="47.0389" height="47.0389" fill="white" transform="translate(0.358093 0.4823)"/>
</clipPath>
</defs>
</svg>
