<svg width="48" height="48" viewBox="0 0 48 48" fill="none" xmlns="http://www.w3.org/2000/svg">
<path d="M46.3135 1.56701C45.0933 0.346842 43.2169 0.152025 40.7458 1.00307C39.659 1.3722 38.4285 1.94639 37.0443 2.72566C36.2138 3.19732 35.3217 3.73051 34.3989 4.34572C34.1528 4.50978 33.9067 4.67383 33.6504 4.84814C35.0654 5.56589 36.3881 6.43744 37.6083 7.46279C37.8954 7.28848 38.162 7.11417 38.4285 6.96037C40.7664 5.56589 42.2326 5.03271 43.0016 4.8789C42.7966 5.91451 41.9045 8.24206 39.1155 12.2614C38.89 12.5793 38.6644 12.9074 38.4285 13.2355C37.9056 12.528 37.3212 11.841 36.6752 11.2053C29.6105 4.14065 18.1471 4.14065 11.0824 11.2053C4.0177 18.27 4.0177 29.7335 11.0824 36.7981C11.7284 37.4441 12.4051 38.0286 13.1126 38.5515C12.7845 38.7873 12.4564 39.0129 12.1385 39.2385C8.11911 42.0172 5.79156 42.9195 4.75595 43.1246C4.879 42.4991 5.25838 41.3815 6.17094 39.6999C6.4888 39.1154 6.86818 38.4592 7.32959 37.7312C6.31449 36.511 5.44294 35.1883 4.71494 33.7733C4.54063 34.0194 4.37657 34.2758 4.21252 34.5219C3.36147 35.8138 2.65398 37.0135 2.09004 38.1106C1.56711 39.1154 1.16722 40.0383 0.88012 40.8688C0.0393306 43.3399 0.223894 45.2163 1.44406 46.4365C2.66423 47.6566 4.54063 47.8514 7.01173 47.0004C8.75483 46.4057 10.8876 45.2778 13.3587 43.6578C18.2393 40.4484 24.0634 35.5575 29.7438 29.877C35.4243 24.1966 40.3255 18.3725 43.5246 13.4919C45.1446 11.0208 46.2725 8.88803 46.8672 7.14493C47.7182 4.66358 47.5337 2.79744 46.3135 1.56701ZM11.0106 25.7243C10.057 25.7243 9.28801 24.9553 9.28801 24.0017C9.28801 20.0849 10.8158 16.3936 13.5842 13.6252C14.261 12.9484 15.3479 12.9484 16.0246 13.6252C16.7013 14.3019 16.7013 15.3888 16.0246 16.0655C13.9021 18.188 12.7332 21.0077 12.7332 24.0017C12.7435 24.9553 11.9642 25.7243 11.0106 25.7243Z" fill="white"/>
<path d="M32.1634 32.2866C28.5747 35.8753 24.9244 39.1565 21.469 41.9352C26.8623 42.6529 32.5325 40.9406 36.675 36.7981C40.8276 32.6455 42.54 26.9855 41.812 21.5922C39.0333 25.0476 35.7522 28.6979 32.1634 32.2866Z" fill="white"/>
</svg>
