<svg width="105" height="105" viewBox="0 0 105 105" fill="none" xmlns="http://www.w3.org/2000/svg">
<path d="M102.593 2.42131C99.8684 -0.302351 95.6789 -0.737221 90.1617 1.16247C87.735 1.98644 84.9878 3.26816 81.8972 5.00764C80.0429 6.06048 78.0512 7.25065 75.9908 8.62392C75.4413 8.99013 74.8919 9.35634 74.3196 9.74543C77.4788 11.3476 80.432 13.2931 83.1563 15.5818C83.7973 15.1927 84.3926 14.8037 84.9878 14.4603C90.2074 11.3476 93.4812 10.1574 95.1982 9.8141C94.7403 12.1258 92.7486 17.3213 86.5216 26.2934C86.018 27.0029 85.5143 27.7353 84.9878 28.4677C83.8202 26.8885 82.5153 25.355 81.0731 23.9359C65.2996 8.16617 39.7051 8.16617 23.9317 23.9359C8.15825 39.7057 8.15825 65.2943 23.9317 81.0641C25.3739 82.506 26.8849 83.8106 28.4645 84.9779C27.7319 85.5043 26.9993 86.0079 26.2897 86.5114C17.3155 92.714 12.1188 94.7282 9.80656 95.1859C10.0813 93.7897 10.9283 91.295 12.9658 87.5414C13.6755 86.2367 14.5226 84.7719 15.5527 83.1469C13.2863 80.4232 11.3404 77.4707 9.71498 74.3122C9.3258 74.8615 8.95951 75.4337 8.59322 75.983C6.69308 78.8668 5.11345 81.5447 3.85433 83.9937C2.68677 86.2367 1.79394 88.2967 1.15293 90.1506C-0.724311 95.6666 -0.312234 99.855 2.41206 102.579C5.13635 105.302 9.3258 105.737 14.8431 103.838C18.7349 102.51 23.4967 99.9924 29.0139 96.3761C39.9111 89.2122 52.9144 78.2946 65.5973 65.6148C78.2801 52.9349 89.223 39.9346 96.3657 29.0399C99.9828 23.5239 102.501 18.7633 103.829 14.8723C105.729 9.33345 105.317 5.16785 102.593 2.42131ZM23.7714 56.3452C21.6423 56.3452 19.9253 54.6286 19.9253 52.5C19.9253 43.7568 23.3364 35.5172 29.5176 29.3375C31.0285 27.8269 33.4552 27.8269 34.9662 29.3375C36.4771 30.8481 36.4771 33.2742 34.9662 34.7848C30.2273 39.5226 27.6175 45.8167 27.6175 52.5C27.6404 54.6286 25.9005 56.3452 23.7714 56.3452Z" fill="white"/>
<path d="M71.8117 72.07C63.7991 80.0807 55.6491 87.4049 47.9341 93.6075C59.9759 95.2096 72.6358 91.3874 81.8847 82.1407C91.1564 72.8711 94.9796 60.2369 93.3542 48.1979C87.1501 55.9111 79.8243 64.0592 71.8117 72.07Z" fill="white"/>
</svg>
