<svg width="200" height="200" viewBox="0 0 200 200" fill="none" xmlns="http://www.w3.org/2000/svg">
<path d="M100 50C93.8194 50 87.7775 51.8328 82.6384 55.2666C77.4994 58.7004 73.494 63.581 71.1288 69.2911C68.7635 75.0013 68.1447 81.2847 69.3505 87.3466C70.5563 93.4085 73.5325 98.9767 77.9029 103.347C82.2733 107.717 87.8415 110.694 93.9034 111.9C99.9654 113.105 106.249 112.486 111.959 110.121C117.669 107.756 122.55 103.751 125.983 98.6116C129.417 93.4725 131.25 87.4307 131.25 81.25C131.25 72.962 127.958 65.0134 122.097 59.1529C116.237 53.2924 108.288 50 100 50ZM100 100C96.2916 100 92.6665 98.9003 89.5831 96.8401C86.4997 94.7798 84.0964 91.8514 82.6773 88.4253C81.2581 84.9992 80.8868 81.2292 81.6103 77.5921C82.3338 73.9549 84.1195 70.614 86.7418 67.9917C89.364 65.3695 92.7049 63.5837 96.3421 62.8603C99.9792 62.1368 103.749 62.5081 107.175 63.9273C110.601 65.3464 113.53 67.7496 115.59 70.8331C117.65 73.9165 118.75 77.5416 118.75 81.25C118.745 86.2213 116.768 90.9875 113.253 94.5028C109.738 98.018 104.971 99.995 100 100Z" fill="#24254e"/>
<path d="M100 12.5C82.6942 12.5 65.7769 17.6318 51.3876 27.2464C36.9983 36.861 25.7832 50.5267 19.1606 66.5152C12.5379 82.5037 10.8051 100.097 14.1813 117.07C17.5575 134.044 25.8911 149.635 38.1282 161.872C50.3653 174.109 65.9563 182.443 82.9296 185.819C99.903 189.195 117.496 187.462 133.485 180.839C149.473 174.217 163.139 163.002 172.754 148.612C182.368 134.223 187.5 117.306 187.5 100C187.474 76.8017 178.246 54.5611 161.843 38.1574C145.439 21.7537 123.198 12.5265 100 12.5V12.5ZM62.5 164.856V156.25C62.505 151.279 64.482 146.512 67.9973 142.997C71.5125 139.482 76.2788 137.505 81.25 137.5H118.75C123.721 137.505 128.488 139.482 132.003 142.997C135.518 146.512 137.495 151.279 137.5 156.25V164.856C126.12 171.501 113.178 175.003 100 175.003C86.8218 175.003 73.8802 171.501 62.5 164.856V164.856ZM149.95 155.788C149.825 147.59 146.485 139.769 140.649 134.01C134.814 128.251 126.949 125.015 118.75 125H81.25C73.0512 125.015 65.1865 128.251 59.3506 134.01C53.5147 139.769 50.1746 147.59 50.05 155.788C38.7161 145.667 30.7234 132.343 27.1303 117.579C23.5372 102.815 24.5132 87.3084 29.929 73.1116C35.3449 58.9148 44.9452 46.6979 57.4586 38.0785C69.9721 29.4592 84.8084 24.8439 100.003 24.8439C115.198 24.8439 130.034 29.4592 142.548 38.0785C155.061 46.6979 164.661 58.9148 170.077 73.1116C175.493 87.3084 176.469 102.815 172.876 117.579C169.283 132.343 161.29 145.667 149.956 155.788H149.95Z" fill="#24254e"/>
</svg>
