<svg width="286" height="525" viewBox="0 0 286 525" fill="none" xmlns="http://www.w3.org/2000/svg">
<path fill-rule="evenodd" clip-rule="evenodd" d="M550.68 381.119L508.475 386.823C465.624 401.296 380.567 421.472 301.333 362.723C222.099 303.974 196.894 225.219 117.661 166.469C53.8107 119.127 -98.2818 74.4603 -179.257 76.5633C-262.426 78.7232 -342.889 33.0419 -383.8 21.2064L-424.064 0.601284L-457.707 456.617L-416.149 459.683C-374.591 462.749 -291.476 468.881 -208.36 475.013C-125.244 481.145 -42.1284 487.277 40.9872 493.409C124.103 499.541 207.219 505.673 290.334 511.805C373.45 517.937 456.566 524.069 498.124 527.135L539.681 530.201L550.68 381.119Z" fill="#181818"/>
</svg>
